<svg width="41" height="40" viewBox="0 0 41 40" fill="none" xmlns="http://www.w3.org/2000/svg">
<rect width="41" height="40" rx="5" fill="#FF2D2D" fill-opacity="0.6"/>
<path d="M14.1694 21.6267C14.7593 18.2684 18.5233 13.4118 20.3315 11.4033C22.3705 13.2897 23.7941 16.105 24.251 17.2768L20.4958 19.3462L20.451 24.4844L24.6305 27.3238C23.8438 28.2512 21.71 30.1012 19.4678 30.0816C16.6652 30.0571 13.4321 25.8246 14.1694 21.6267Z" fill="white"/>
<path d="M24.9436 18.2172L21.424 20.0551L21.3914 23.7919L24.8764 25.9245L28.1604 24.3182L27.9615 20.3457L24.9436 18.2172Z" fill="white"/>
<path d="M28.1955 20.2989L24.991 18.1531L21.3359 19.9272M28.1955 20.2989L24.84 21.8227M28.1955 20.2989L28.1598 24.3931L24.8018 26.1993M24.84 21.8227L21.3359 19.9272M24.84 21.8227L24.8018 26.1993M21.3359 19.9272L21.3011 23.9097L24.8018 26.1993M16.1937 24.7411C16.2882 25.9607 17.14 28.4057 19.7907 28.4288M14.1564 23.1337C14.1947 18.744 18.6637 12.9107 20.363 11.0532C21.2723 12.0756 22.9366 14.4655 24.2109 17.1154L20.5254 19.2452L20.3529 24.4779L24.6318 27.1861C24.6318 27.1861 22.0032 29.9399 20.1979 29.9691C15.9638 30.0375 14.1296 26.2068 14.1564 23.1337Z" stroke="#EDEBEB" stroke-width="0.700692" stroke-linecap="round"/>
</svg>
